<svg width="93" height="92" viewBox="0 0 93 92" fill="none" xmlns="http://www.w3.org/2000/svg">
<circle cx="46.5" cy="46" r="46" fill="#4F46E5"/>
<path d="M33.6571 37.6169C34.2023 37.6169 34.724 37.6948 35.2222 37.8506C37.1004 35.7519 39.178 33.8408 41.4257 32.144C41.1939 31.1765 41.2391 30.1632 41.5562 29.2201C39.018 27.4008 36.2713 25.8919 33.3745 24.7256C30.6461 26.417 28.265 28.6129 26.3585 31.1957C27.7687 33.6957 29.4453 36.0245 31.3528 38.144C32.0484 37.8071 32.8283 37.6169 33.6571 37.6169ZM28.3367 42.9348C28.3367 42.1875 28.4943 41.4756 28.7687 40.8342C27.0594 38.9537 25.5182 36.9269 24.1629 34.7772C22.4123 38.2602 21.5003 42.1044 21.5 46.0027C21.4953 50.5043 22.7114 54.9229 25.0189 58.788C25.8075 54.3677 27.2933 50.1008 29.4208 46.1467C28.7175 45.2237 28.3366 44.0953 28.3367 42.9348ZM46.5967 25.5897C48.0015 25.5897 49.2732 26.1359 50.227 27.0272C53.0333 25.8163 55.9623 24.9125 58.963 24.3315C55.1738 22.1436 50.8743 20.9944 46.4989 21C43.4957 21.0001 40.5171 21.5414 37.7058 22.5978C39.8683 23.6694 41.9379 24.9192 43.893 26.3343C44.6865 25.8614 45.6076 25.5897 46.5967 25.5897ZM54.5474 50.6413C54.8714 49.9524 55.3437 49.3437 55.9305 48.8587C54.377 44.0796 51.9113 39.6472 48.67 35.8071C47.8317 36.1607 46.9168 36.2937 46.0125 36.1933C45.1083 36.0929 44.2448 35.7626 43.5044 35.2337C41.5768 36.6971 39.7902 38.3374 38.1677 40.1332C38.5764 40.7802 38.8385 41.5088 38.9356 42.2679C39.0328 43.0269 38.9627 43.7981 38.7302 44.5272C43.4861 47.7089 48.888 49.797 54.5474 50.6413ZM61.4466 57.8234C61.6429 60.6156 61.5692 63.4203 61.2265 66.1984C65.5205 63.0696 68.7061 58.6541 70.3211 53.5924C68.372 54.0646 66.3915 54.3961 64.3948 54.5842C64.1611 55.3023 63.7773 55.9625 63.269 56.5209C62.7607 57.0794 62.1395 57.5233 61.4466 57.8234ZM53.3029 54.2174C47.2563 53.2139 41.4993 50.911 36.4287 47.4674C35.2736 48.1787 33.8896 48.4199 32.562 48.1413C30.1192 52.7631 28.641 57.833 28.2171 63.0435C30.6124 65.6198 33.5245 67.6616 36.7629 69.0353C40.8676 62.7191 46.5753 57.6056 53.3029 54.2174ZM63.2807 27.4701C59.3577 27.854 55.5159 28.8326 51.8872 30.3723C51.986 31.3585 51.8062 32.3527 51.3682 33.2419C54.9666 37.4643 57.707 42.348 59.4358 47.6196C60.4656 47.6378 61.468 47.9542 62.3217 48.5306C63.1753 49.1069 63.8435 49.9185 64.2453 50.8669C66.6528 50.6223 68.9951 50.1603 71.2505 49.4973C71.8267 45.4538 71.4013 41.3307 70.0117 37.49C68.6221 33.6494 66.3108 30.2087 63.2807 27.4701ZM55.9794 57.0571C49.7134 59.9925 44.3448 64.5479 40.4285 70.2527C42.4137 70.7493 44.4525 71.0003 46.4989 71C50.1431 71.0001 53.7433 70.2034 57.0473 68.6658C57.5636 66.144 57.8353 63.538 57.8353 60.8696C57.8335 59.904 57.7945 58.9484 57.7185 58.0027C57.0832 57.8026 56.4927 57.4815 55.9794 57.0571Z" fill="white"/>
</svg>
