<svg width="93" height="92" viewBox="0 0 93 92" fill="none" xmlns="http://www.w3.org/2000/svg">
<circle cx="46.5" cy="46" r="46" fill="#4F46E5"/>
<path d="M65.1154 27H27.8846C26.987 27 26.1261 27.3481 25.4913 27.9678C24.8566 28.5875 24.5 29.4279 24.5 30.3042V63.3467C24.4998 63.6285 24.5734 63.9056 24.7138 64.1517C24.8543 64.3979 25.0568 64.6049 25.3023 64.7531C25.5478 64.9013 25.828 64.9857 26.1163 64.9983C26.4047 65.011 26.6915 64.9514 26.9496 64.8253L32.9615 61.8887L38.9735 64.8253C39.2086 64.9402 39.4679 65 39.7308 65C39.9937 65 40.253 64.9402 40.4881 64.8253L46.5 61.8887L52.5119 64.8253C52.747 64.9402 53.0063 65 53.2692 65C53.5321 65 53.7914 64.9402 54.0265 64.8253L60.0385 61.8887L66.0504 64.8253C66.3085 64.9514 66.5953 65.011 66.8837 64.9983C67.172 64.9857 67.4522 64.9013 67.6977 64.7531C67.9432 64.6049 68.1457 64.3979 68.2862 64.1517C68.4266 63.9056 68.5002 63.6285 68.5 63.3467V30.3042C68.5 29.4279 68.1434 28.5875 67.5087 27.9678C66.8739 27.3481 66.013 27 65.1154 27ZM65.1154 60.6744L60.7958 58.5638C60.5607 58.4489 60.3014 58.3891 60.0385 58.3891C59.7756 58.3891 59.5163 58.4489 59.2812 58.5638L53.2692 61.5004L47.2573 58.5638C47.0222 58.4489 46.7629 58.3891 46.5 58.3891C46.2371 58.3891 45.9778 58.4489 45.7427 58.5638L39.7308 61.5004L33.7188 58.5638C33.4837 58.4489 33.2244 58.3891 32.9615 58.3891C32.6986 58.3891 32.4393 58.4489 32.2042 58.5638L27.8846 60.6744V30.3042H65.1154V60.6744ZM32.2042 53.2605C32.4031 53.3577 32.6197 53.4157 32.8415 53.4312C33.0634 53.4466 33.2862 53.4193 33.4972 53.3506C33.7082 53.2819 33.9033 53.1733 34.0712 53.031C34.2392 52.8887 34.3768 52.7154 34.4762 52.5212L35.6988 50.1297H43.7627L44.9854 52.5212C45.0848 52.7153 45.2225 52.8885 45.3905 53.0307C45.5585 53.173 45.7535 53.2815 45.9645 53.3502C46.1755 53.4188 46.3982 53.4462 46.62 53.4309C46.8419 53.4155 47.0584 53.3576 47.2573 53.2605C47.4562 53.1634 47.6336 53.029 47.7793 52.865C47.925 52.701 48.0362 52.5106 48.1065 52.3046C48.1768 52.0987 48.2049 51.8812 48.1891 51.6646C48.1734 51.4481 48.1141 51.2367 48.0146 51.0425L41.2454 37.8255C41.105 37.5506 40.8889 37.3193 40.6214 37.1577C40.3538 36.996 40.0454 36.9104 39.7308 36.9104C39.4161 36.9104 39.1077 36.996 38.8401 37.1577C38.5726 37.3193 38.3565 37.5506 38.2162 37.8255L31.4469 51.0425C31.3473 51.2367 31.2879 51.4481 31.2721 51.6647C31.2562 51.8812 31.2843 52.0988 31.3546 52.3048C31.425 52.5108 31.5362 52.7012 31.682 52.8652C31.8278 53.0292 32.0052 53.1635 32.2042 53.2605ZM39.7308 42.2594L42.0704 46.8255H37.3912L39.7308 42.2594ZM48.1923 45.1733C48.1923 44.7352 48.3706 44.315 48.688 44.0051C49.0053 43.6953 49.4358 43.5212 49.8846 43.5212H53.2692V40.217C53.2692 39.7788 53.4475 39.3586 53.7649 39.0488C54.0823 38.7389 54.5127 38.5649 54.9615 38.5649C55.4104 38.5649 55.8408 38.7389 56.1582 39.0488C56.4756 39.3586 56.6538 39.7788 56.6538 40.217V43.5212H60.0385C60.4873 43.5212 60.9177 43.6953 61.2351 44.0051C61.5525 44.315 61.7308 44.7352 61.7308 45.1733C61.7308 45.6115 61.5525 46.0317 61.2351 46.3416C60.9177 46.6514 60.4873 46.8255 60.0385 46.8255H56.6538V50.1297C56.6538 50.5679 56.4756 50.9881 56.1582 51.2979C55.8408 51.6078 55.4104 51.7818 54.9615 51.7818C54.5127 51.7818 54.0823 51.6078 53.7649 51.2979C53.4475 50.9881 53.2692 50.5679 53.2692 50.1297V46.8255H49.8846C49.4358 46.8255 49.0053 46.6514 48.688 46.3416C48.3706 46.0317 48.1923 45.6115 48.1923 45.1733Z" fill="white"/>
</svg>
